<?xml version="1.0" encoding="UTF-8"?>
<svg id="Layer_1" data-name="Layer 1" xmlns="http://www.w3.org/2000/svg" viewBox="0 0 754 754">
  <defs>
    <style>
      .cls-1 {
        fill: #ffc200;
      }
    </style>
  </defs>
  <path class="cls-1" d="M707.29,258.56c25.79,0,46.71-20.91,46.71-46.71V46.71c0-25.8-20.92-46.71-46.71-46.71h-165.14c-25.8,0-46.71,20.91-46.71,46.71s20.91,46.71,46.71,46.71h52.38l-217.52,217.52L159.48,93.42h52.38c25.8,0,46.71-20.91,46.71-46.71S237.65,0,211.85,0H46.71C20.92,0,0,20.91,0,46.71V211.85c0,25.8,20.92,46.71,46.71,46.71s46.71-20.91,46.71-46.71v-52.38l217.52,217.52-217.52,217.52v-52.38c0-25.8-20.91-46.71-46.71-46.71S0,516.35,0,542.15v165.14c0,25.8,20.92,46.71,46.71,46.71H211.85c25.8,0,46.71-20.91,46.71-46.71s-20.91-46.71-46.71-46.71h-52.38l217.52-217.52,217.52,217.52h-52.38c-25.8,0-46.71,20.91-46.71,46.71s20.91,46.71,46.71,46.71h165.14c25.79,0,46.71-20.91,46.71-46.71v-165.14c0-25.8-20.92-46.71-46.71-46.71s-46.71,20.91-46.71,46.71v52.38l-217.52-217.52,217.52-217.52v52.38c0,25.8,20.91,46.71,46.71,46.71Z"/>
</svg>